<?xml version="1.0" encoding="utf-8"?>
<svg version="1.1" xmlns:xlink="http://www.w3.org/1999/xlink" width="74px" height="74px" xmlns="http://www.w3.org/2000/svg">
  <defs>
    <filter x="2px" y="9965px" width="74px" height="74px" filterUnits="userSpaceOnUse" id="filter15">
      <feOffset dx="0" dy="0" in="SourceAlpha" result="shadowOffsetInner" />
      <feGaussianBlur stdDeviation="5" in="shadowOffsetInner" result="shadowGaussian" />
      <feComposite in2="shadowGaussian" operator="atop" in="SourceAlpha" result="shadowComposite" />
      <feColorMatrix type="matrix" values="0 0 0 0 0.984313725490196  0 0 0 0 0.984313725490196  0 0 0 0 0.984313725490196  0 0 0 0.4980392156862745 0  " in="shadowComposite" />
    </filter>
    <g id="widget16">
      <path d="M 33.36328125 33.36328125000001  C 35.12109375 31.605468749999996  36 29.484375  36 27  C 36 24.515624999999996  35.12109375 22.394531249999996  33.36328125 20.636718750000004  C 31.605468750000004 18.87890625  29.484375000000004 18.000000000000004  27 18.000000000000004  C 24.515625 18.000000000000004  22.39453125 18.87890625  20.63671875 20.636718750000004  C 18.87890625 22.394531249999996  18 24.515624999999996  18 27  C 18 29.484375  18.87890625 31.605468749999996  20.63671875 33.36328125000001  C 22.39453125 35.12109375  24.515625 36.00000000000001  27 36.00000000000001  C 29.484375000000004 36.00000000000001  31.605468750000004 35.12109375  33.36328125 33.36328125000001  Z M 36.80859375 17.19140625  C 39.50390625000001 19.886718749999993  40.8515625 23.156249999999993  40.8515625 27  C 40.8515625 30.84375  39.50390625000001 34.11328125  36.80859375 36.80859375  C 34.11328125 39.50390625  30.84375 40.8515625  27 40.8515625  C 23.15625 40.8515625  19.88671875 39.50390625  17.19140625 36.80859375  C 14.496093750000002 34.11328125  13.1484375 30.84375  13.1484375 27  C 13.1484375 23.156249999999993  14.496093750000002 19.886718749999993  17.19140625 17.19140625  C 19.88671875 14.496093749999995  23.15625 13.148437500000002  27 13.148437500000002  C 30.84375 13.148437500000002  34.11328125 14.496093749999995  36.80859375 17.19140625  Z M 43.69921875 10.300781250000002  C 44.33203125 10.933593750000002  44.6484375 11.695312499999996  44.6484375 12.585937499999998  C 44.6484375 13.4765625  44.33203125 14.23828125  43.69921875 14.87109375  C 43.06640625 15.50390625  42.3046875 15.8203125  41.4140625 15.8203125  C 40.5234375 15.8203125  39.76171875 15.50390625  39.12890625 14.87109375  C 38.49609375 14.23828125  38.1796875 13.4765625  38.1796875 12.585937499999998  C 38.1796875 11.695312499999996  38.49609375 10.933593750000002  39.12890625 10.300781250000002  C 39.76171875 9.667968750000002  40.5234375 9.351562500000002  41.4140625 9.351562500000002  C 42.3046875 9.351562500000002  43.06640625 9.667968750000002  43.69921875 10.300781250000002  Z M 29.689453125 4.833984374999998  C 28.060546875000004 4.845703124999996  27.164062500000004 4.8515625  27 4.8515625  C 26.8359375 4.8515625  25.939453125 4.845703124999996  24.310546875 4.833984374999998  C 22.681640625 4.822265624999995  21.4453125 4.822265624999995  20.6015625 4.833984374999998  C 19.7578125 4.845703124999996  18.626953125 4.880859374999999  17.208984375 4.939453124999998  C 15.791015625000004 4.9980468749999964  14.583984375000002 5.115234375  13.587890625000002 5.291015625000002  C 12.591796875000002 5.466796874999998  11.753906250000002 5.6835937499999964  11.07421875 5.941406249999998  C 9.902343750000002 6.410156249999999  8.87109375 7.089843749999995  7.980468750000001 7.980468750000002  C 7.089843750000001 8.871093749999996  6.41015625 9.902343749999996  5.94140625 11.07421875  C 5.68359375 11.753906249999995  5.466796875 12.591796874999996  5.291015625 13.587890624999998  C 5.115234375 14.583984375  4.998046875 15.791015624999995  4.939453125 17.208984375000004  C 4.880859375 18.626953124999996  4.845703125000001 19.757812499999996  4.833984375 20.601562499999996  C 4.822265625000001 21.445312499999996  4.822265625000001 22.681640624999993  4.833984375 24.310546875  C 4.845703125000001 25.939453124999996  4.8515625 26.835937499999996  4.8515625 27  C 4.8515625 27.1640625  4.845703125000001 28.060546875  4.833984375 29.689453125  C 4.822265625000001 31.318359375  4.822265625000001 32.55468749999999  4.833984375 33.39843749999999  C 4.845703125000001 34.24218749999999  4.880859375 35.37304687499999  4.939453125 36.79101562500001  C 4.998046875 38.20898437499999  5.115234375 39.41601562499999  5.291015625 40.41210937499999  C 5.466796875 41.408203125  5.68359375 42.24609374999999  5.94140625 42.92578125  C 6.41015625 44.09765625  7.089843750000001 45.12890625  7.980468750000001 46.01953125  C 8.87109375 46.91015625  9.902343750000002 47.58984375  11.07421875 48.05859375  C 11.753906250000002 48.31640625  12.591796875000002 48.533203125  13.587890625000002 48.708984375  C 14.583984375000002 48.884765625  15.791015625000004 49.001953125  17.208984375 49.060546875  C 18.626953125 49.119140625  19.7578125 49.15429687500001  20.6015625 49.166015625  C 21.4453125 49.177734375  22.681640625 49.177734375  24.310546875 49.166015625  C 25.939453125 49.15429687500001  26.8359375 49.1484375  27 49.1484375  C 27.164062500000004 49.1484375  28.060546875000004 49.15429687500001  29.689453125 49.166015625  C 31.318359375 49.177734375  32.5546875 49.177734375  33.3984375 49.166015625  C 34.2421875 49.15429687500001  35.373046875 49.119140625  36.791015625 49.060546875  C 38.20898437500001 49.001953125  39.416015625 48.884765625  40.412109375 48.708984375  C 41.408203125 48.533203125  42.24609375000001 48.31640625  42.92578125 48.05859375  C 44.09765625 47.58984375  45.12890625 46.91015625  46.01953125 46.01953125  C 46.91015625000001 45.12890625  47.58984375 44.09765625  48.05859375 42.92578125  C 48.31640625 42.24609374999999  48.533203125 41.408203125  48.708984375 40.41210937499999  C 48.884765625 39.41601562499999  49.001953125 38.20898437499999  49.060546875 36.79101562500001  C 49.119140625 35.37304687499999  49.15429687500001 34.24218749999999  49.166015625 33.39843749999999  C 49.17773437500001 32.55468749999999  49.17773437500001 31.318359375  49.166015625 29.689453125  C 49.15429687500001 28.060546875  49.1484375 27.1640625  49.1484375 27  C 49.1484375 26.835937499999996  49.15429687500001 25.939453124999996  49.166015625 24.310546875  C 49.17773437500001 22.681640624999993  49.17773437500001 21.445312499999996  49.166015625 20.601562499999996  C 49.15429687500001 19.757812499999996  49.119140625 18.626953124999996  49.060546875 17.208984375000004  C 49.001953125 15.791015624999995  48.884765625 14.583984375  48.708984375 13.587890624999998  C 48.533203125 12.591796874999996  48.31640625 11.753906249999995  48.05859375 11.07421875  C 47.58984375 9.902343749999996  46.91015625000001 8.871093749999996  46.01953125 7.980468750000002  C 45.12890625 7.089843749999995  44.09765625 6.410156249999999  42.92578125 5.941406249999998  C 42.24609375000001 5.6835937499999964  41.408203125 5.466796874999998  40.412109375 5.291015625000002  C 39.416015625 5.115234375  38.20898437500001 4.9980468749999964  36.791015625 4.939453124999998  C 35.373046875 4.880859374999999  34.2421875 4.845703124999996  33.3984375 4.833984374999998  C 32.5546875 4.822265624999995  31.318359375 4.822265624999995  29.689453125 4.833984374999998  Z M 53.82421875 15.855468749999998  C 53.94140624999999 17.917968749999996  54 21.632812499999996  54 27  C 54 32.3671875  53.94140624999999 36.08203125  53.82421875 38.14453124999999  C 53.58984375 43.01953125  52.13671875 46.79296875  49.46484375 49.46484375  C 46.79296875 52.13671875  43.01953125 53.58984375  38.14453125 53.82421875  C 36.08203125 53.94140624999999  32.3671875 54  27 54  C 21.6328125 54  17.91796875 53.94140624999999  15.855468750000002 53.82421875  C 10.980468750000002 53.58984375  7.207031250000001 52.13671875  4.53515625 49.46484375  C 1.8632812500000002 46.79296875  0.41015625000000006 43.01953125  0.17578125 38.14453124999999  C 0.05859374999999999 36.08203125  0 32.3671875  0 27  C 0 21.632812499999996  0.05859374999999999 17.917968749999996  0.17578125 15.855468749999998  C 0.41015625000000006 10.980468749999996  1.8632812500000002 7.207031249999998  4.53515625 4.53515625  C 7.207031250000001 1.863281250000002  10.980468750000002 0.41015624999999667  15.855468750000002 0.175781250000002  C 17.91796875 0.05859374999999267  21.6328125 0  27 0  C 32.3671875 0  36.08203125 0.05859374999999267  38.14453125 0.175781250000002  C 43.01953125 0.41015624999999667  46.79296875 1.863281250000002  49.46484375 4.53515625  C 52.13671875 7.207031249999998  53.58984375 10.980468749999996  53.82421875 15.855468749999998  Z " fill-rule="nonzero" fill="#fbfbfb" stroke="none" transform="matrix(1 0 0 1 12 9975 )" />
    </g>
  </defs>
  <g transform="matrix(1 0 0 1 -2 -9965 )">
    <use xlink:href="#widget16" filter="url(#filter15)" />
    <use xlink:href="#widget16" />
  </g>
</svg>