<svg xmlns="http://www.w3.org/2000/svg" viewBox="0 0 595.28 841.89"><defs><style>.cls-1{fill:#ef85b4;}.cls-1,.cls-2,.cls-3,.cls-4,.cls-5{stroke:#fff;stroke-miterlimit:10;stroke-width:3px;}.cls-2{fill:#f29dc3;}.cls-3{fill:#f4aece;}.cls-4{fill:#f7c3dc;}.cls-5{fill:#fad8e9;}.cls-6{fill:#ae4267;}.cls-7{fill:#dadada;}</style></defs><g id="vetor_2" data-name="vetor 2"><path class="cls-1" d="M325.29,478.49s24.88-23.07,20.47-46.93S320,397.44,320,397.44l-26.7,8.4s-10.54,20.86-6.63,38.48S325.29,478.49,325.29,478.49Z"/><path class="cls-2" d="M387.55,438.24s2.33-30.57-15.65-46.4S331,381.31,331,381.31l-15.72,23.16S322,422.8,335.81,434.1,387.55,438.24,387.55,438.24Z"/><path class="cls-1" d="M405.3,348.17s-24-23.66-46.26-18.34-30.21,26.87-30.21,26.87l2.75,26.83s20.41,13.84,44.55,4.21S405.3,348.17,405.3,348.17Z"/><path class="cls-2" d="M357.65,284.59s-30.65.46-44.79,19.81-6.76,41.71-6.76,41.71l24.49,13.55s18.84-10.47,28.83-25.23S357.65,284.59,357.65,284.59Z"/><path class="cls-1" d="M276,273s-23.33,24.3-17.71,46.5,27.27,29.85,27.27,29.85l25.91-10.57s6.12-20.26,1.33-36.59S276,273,276,273Z"/><path class="cls-2" d="M209.76,324.46s3.48,30.45,24.13,42.61,42.18,2.61,42.18,2.61L287.13,344S277,327.25,261.35,318.76,209.76,324.46,209.76,324.46Z"/><path class="cls-1" d="M198.54,398.16s23.07,24.88,46.93,20.47,34.12-25.8,34.12-25.8l-8.4-26.7s-20.85-10.53-38.48-6.63S198.54,398.16,198.54,398.16Z"/><path class="cls-2" d="M286.63,444.32c-3.91-17.62,6.63-38.48,6.63-38.48l1.22-.38a42.28,42.28,0,0,0-2.17-6.84l-25.75-11s-16.68,10.18-25.11,25.88,5.91,51.57,5.91,51.57,26-3.1,39.5-19.95C286.79,444.88,286.69,444.6,286.63,444.32Z"/><path class="cls-3" d="M310.2,407.85c2.58,4.85,13.27,15.13,21.71,10.45s5.25-16-1-22.93-19.12-10.53-19.12-10.53l-7.58,6S307.63,403,310.2,407.85Z"/><path class="cls-3" d="M328.69,352.73c3.34-4.35,12.45-15.34,4.7-21.07s-15.68-1.49-19.37,7.07-3.66,20.73-3.66,20.73L316.5,362S325.35,357.09,328.69,352.73Z"/><path class="cls-3" d="M302.29,337.24c-1.77-6.47-5.93-15.73-18.42-11.6-12,5.73-6.48,20.83,0,27.53s11,10.62,11,10.62l9-4.56S304.05,343.7,302.29,337.24Z"/><path class="cls-3" d="M338.12,385.13c6.58,1.24,15.72,1,17.48-12,.1-13.3-14.88-14.39-23.75-11.49s-14.38,5.28-14.38,5.28l.17,10.07S331.53,383.89,338.12,385.13Z"/><path class="cls-3" d="M269.87,355.18c-6.56-1.33-16.71-1.79-18.64,11.22-.29,13.29,15.67,15.17,24.58,12.4s14.46-5.08,14.46-5.08l0-10.07S276.44,356.52,269.87,355.18Z"/><path class="cls-4" d="M337.46,354.9c2.34,5.17-2.24,9.93-5.46,11.67s-14.54,3-14.54,3l-1.72-3.45s4.53-10.76,9.13-13.13S335.12,349.74,337.46,354.9Z"/><path class="cls-4" d="M274.14,347.56c2.63-3.41,10.07-1.48,12.85.89s8.57,11.69,8.57,11.69l-3.85,5.68s-11-1.9-14.83-5.83S271.51,351,274.14,347.56Z"/><path class="cls-4" d="M339.07,391.88c-2.95,4.84-9.47,3.74-12.71,2.07s-10.68-10.32-10.68-10.32l1.89-3.37s11.44-2.32,16,.14S342,387,339.07,391.88Z"/><path class="cls-4" d="M310.12,335.35c5.32,2,5.47,8.59,4.44,12.1s-8.12,12.43-8.12,12.43l-3.66-1.21s-4.44-10.8-2.88-15.74S304.81,333.38,310.12,335.35Z"/><path class="cls-3" d="M277.75,394.58c-2.63,4.82-9.2,20.87-.65,25.34s17.67-6.34,20-15.37l4.42-17.2-15.1-5S280.38,389.76,277.75,394.58Z"/><path class="cls-4" d="M302.26,414.94c-5.64-.55-7.48-6.91-7.38-10.56s4.67-14.09,4.67-14.09l3.85.24s7.06,9.3,6.81,14.47S307.9,415.5,302.26,414.94Z"/><path class="cls-4" d="M265.27,390.3c-1.93-5.33,3-9.73,6.34-11.21s14.73-1.86,14.73-1.86l1.45,3.57s-5.35,10.38-10.12,12.38S267.2,395.63,265.27,390.3Z"/><path class="cls-5" d="M293.38,351.37c6.57-4.31,10.36-.37,15.61.05s5.38-.89,9-.4,11.1,6.49,9.88,13.18-4.31,6.86-3.38,10.15,2.92,5.51.57,12.18c-4.76,11-12.87,4.29-15.9,6.25s1.68,9.06-9.74,7.45-7.46-8.69-9.42-11.06-8.67,2.88-11.39-7.91,4.37-12.2,7.53-16.13S286.81,355.68,293.38,351.37Z"/><path class="cls-6" d="M300.21,372.22c1.94-1.58,1.91-4.06,4.18-4.05s1.37,3.75,2.51,4.07,4.14-1.46,5.4,1.56-1.95.11-2.45,3,1.48,5.26-.63,6.15-3.52-1.18-5.32-1.43-3.33,2.54-5,2,.26-3.66,0-5.19-2.92-.37-3.93-3.23S298.28,373.81,300.21,372.22Z"/></g><g id="Camada_4" data-name="Camada 4"><path class="cls-7" d="M25.28,544,54,475.46h.54L83.25,544H73.15L51.67,489.29l6.28-4.1L34,544ZM42.12,519H66.6l2.91,7.65H39.57Z"/><path class="cls-7" d="M132.84,544.89a18.18,18.18,0,0,1-9.23-2.28,18.86,18.86,0,0,1-6.33-5.73l1-2.55V544h-8.55V473.54h8.46V515l-.18-3.28a16.13,16.13,0,0,1,6.42-5,22.46,22.46,0,0,1,9.51-1.95,17.91,17.91,0,0,1,9.19,2.45,18.25,18.25,0,0,1,6.69,6.87,20.9,20.9,0,0,1,2.5,10.42,21.36,21.36,0,0,1-2.69,11,18.28,18.28,0,0,1-7.14,7A20,20,0,0,1,132.84,544.89ZM131,537.7a12.54,12.54,0,0,0,6.59-1.73,12.36,12.36,0,0,0,4.51-4.73,13.86,13.86,0,0,0,1.64-6.74,13.11,13.11,0,0,0-1.69-6.59,12.36,12.36,0,0,0-4.55-4.64,12.53,12.53,0,0,0-6.5-1.69,14.31,14.31,0,0,0-5.74,1.14,12.13,12.13,0,0,0-7,7.87v7.74a13.07,13.07,0,0,0,2.46,4.77,12,12,0,0,0,4.42,3.37A13.87,13.87,0,0,0,131,537.7Z"/><path class="cls-7" d="M190.63,544.71a21.86,21.86,0,0,1-7.78-1.42,14.84,14.84,0,0,1-6.23-4.23l3.54-4.91a19.18,19.18,0,0,0,4.92,3.41,11.67,11.67,0,0,0,8.28.68,5.14,5.14,0,0,0,2.5-1.54,4.12,4.12,0,0,0,1-2.82,4,4,0,0,0-1.32-3.23,10.67,10.67,0,0,0-3.32-1.87c-1.34-.48-2.8-.94-4.37-1.36a16.29,16.29,0,0,1-7.1-4.28,9.56,9.56,0,0,1-2.46-6.64,11,11,0,0,1,1.5-5.6,11.73,11.73,0,0,1,4.51-4.28,14.7,14.7,0,0,1,7.28-1.68,24,24,0,0,1,7,.95,17,17,0,0,1,5.82,3.23L201,514.4a10.56,10.56,0,0,0-3.86-2.59,11.26,11.26,0,0,0-4-.86,8.87,8.87,0,0,0-3.05.5,5.43,5.43,0,0,0-2.28,1.45,3.49,3.49,0,0,0-.86,2.41,3.58,3.58,0,0,0,1.23,3.05,10.44,10.44,0,0,0,3.32,1.87c1.33.48,2.7,1,4.09,1.45a20.42,20.42,0,0,1,4.92,2.19,11.37,11.37,0,0,1,3.5,3.36,8.94,8.94,0,0,1,1.32,5,12.64,12.64,0,0,1-1.59,6.23,11.28,11.28,0,0,1-4.83,4.55A17.76,17.76,0,0,1,190.63,544.71Z"/><path class="cls-7" d="M230,524.78a19.67,19.67,0,0,1,2.69-10.19,19.19,19.19,0,0,1,7.46-7.19,22.09,22.09,0,0,1,10.87-2.64,21.32,21.32,0,0,1,10.74,2.64,18.85,18.85,0,0,1,7.23,7.19A21.27,21.27,0,0,1,269,535a19.23,19.23,0,0,1-7.23,7.23A21.22,21.22,0,0,1,251,544.89a22.51,22.51,0,0,1-10.78-2.51,18.86,18.86,0,0,1-7.42-7A20.06,20.06,0,0,1,230,524.78Zm8.55.09a13.39,13.39,0,0,0,1.64,6.59,12.74,12.74,0,0,0,4.37,4.69,11.34,11.34,0,0,0,6.19,1.73,11.5,11.5,0,0,0,6.28-1.73,12.3,12.3,0,0,0,4.32-4.69,14.47,14.47,0,0,0,0-13.19,12.71,12.71,0,0,0-4.32-4.73,11.29,11.29,0,0,0-6.28-1.78,11.12,11.12,0,0,0-6.23,1.82,13,13,0,0,0-4.37,4.78A13.53,13.53,0,0,0,238.58,524.87Z"/><path class="cls-7" d="M306.83,506.3l.82,10.92-.36-1.54a16.62,16.62,0,0,1,4.19-5.83,20.18,20.18,0,0,1,5.82-3.73,16,16,0,0,1,5.28-1.36l-.37,8.55a12.35,12.35,0,0,0-7.59,1.59,14.65,14.65,0,0,0-5.1,5.1,13.06,13.06,0,0,0-1.87,6.78V544h-8.46V506.3Z"/><path class="cls-7" d="M356.61,478.19l21.66,54.41-5-1,20.48-53.41H404.2l-29,68.88-29.12-68.88Z"/><path class="cls-7" d="M429.59,492.65a4.24,4.24,0,0,1,1.6-3.36,5.27,5.27,0,0,1,3.5-1.37,5.11,5.11,0,0,1,3.46,1.37,4.48,4.48,0,0,1,0,6.78,5.2,5.2,0,0,1-3.46,1.32,5.36,5.36,0,0,1-3.5-1.32A4.22,4.22,0,0,1,429.59,492.65Zm.55,13.65h8.55V544h-8.55Z"/><path class="cls-7" d="M484.92,544.89a17.83,17.83,0,0,1-16.15-9.6,21.82,21.82,0,0,1-2.5-10.6A20.7,20.7,0,0,1,468.91,514a17.83,17.83,0,0,1,7.09-6.83,21.13,21.13,0,0,1,10-2.36,19.6,19.6,0,0,1,8.51,1.91,15.29,15.29,0,0,1,6.33,5.28l-.46,3V473.54h8.46V544h-8.46v-9.37l1,2.36a21.48,21.48,0,0,1-7,5.69A20.16,20.16,0,0,1,484.92,544.89Zm2.64-7.19a13.36,13.36,0,0,0,6-1.27,13,13,0,0,0,4.37-3.42,12.49,12.49,0,0,0,2.5-5v-7.19A11.66,11.66,0,0,0,497.8,516a12.79,12.79,0,0,0-4.46-3.23,14.23,14.23,0,0,0-5.78-1.14,12.63,12.63,0,0,0-6.28,1.64,12.35,12.35,0,0,0-4.64,4.55,13.88,13.88,0,0,0,0,13.42,13.31,13.31,0,0,0,4.64,4.73A11.81,11.81,0,0,0,487.56,537.7Z"/><path class="cls-7" d="M555.54,544.89a20.25,20.25,0,0,1-9.6-2.28,16.75,16.75,0,0,1-6.87-6.69,24,24,0,0,1,.09-21.7,18.36,18.36,0,0,1,7.09-7,20,20,0,0,1,9.74-2.45,16,16,0,0,1,9,2.41,16.28,16.28,0,0,1,5.51,5.69l-.55,1.36.82-7.92h7.83V544H570.1v-9.83l1,2.18a11.62,11.62,0,0,1-1.73,2.32,21.89,21.89,0,0,1-3.23,2.87,18,18,0,0,1-4.6,2.41A17.48,17.48,0,0,1,555.54,544.89Zm2.27-7a13.4,13.4,0,0,0,5.73-1.18,11.29,11.29,0,0,0,4.24-3.37,12.68,12.68,0,0,0,2.32-5.1v-7.37a11.61,11.61,0,0,0-2.55-4.77,12.72,12.72,0,0,0-4.37-3.19,13.44,13.44,0,0,0-5.55-1.14A12.18,12.18,0,0,0,546.85,518a13.33,13.33,0,0,0-1.69,6.83,13.08,13.08,0,0,0,1.73,6.64,12.84,12.84,0,0,0,4.64,4.73A12.12,12.12,0,0,0,557.81,537.88Z"/></g></svg>