<?xml version="1.0" encoding="utf-8"?>
<svg version="1.1" xmlns:xlink="http://www.w3.org/1999/xlink" width="65px" height="65px" xmlns="http://www.w3.org/2000/svg">
  <defs>
    <filter x="11px" y="12px" width="65px" height="65px" filterUnits="userSpaceOnUse" id="filter51">
      <feOffset dx="0" dy="0" in="SourceAlpha" result="shadowOffsetInner" />
      <feGaussianBlur stdDeviation="5" in="shadowOffsetInner" result="shadowGaussian" />
      <feComposite in2="shadowGaussian" operator="atop" in="SourceAlpha" result="shadowComposite" />
      <feColorMatrix type="matrix" values="0 0 0 0 1  0 0 0 0 1  0 0 0 0 1  0 0 0 0.3137254901960784 0  " in="shadowComposite" />
    </filter>
    <g id="widget52">
      <path d="M 31.439732142857142 39.588448660714285  C 34.20200892857143 38.12360491071429  36.47042410714286 36.13560267857142  38.24497767857143 33.624441964285715  C 37.87667410714286 31.029575892857142  37.14425223214286 28.87416294642857  36.04771205357143 27.158203125  C 34.951171875 25.44224330357143  33.40680803571429 24.45033482142857  31.41462053571429 24.182477678571427  C 30.29296875 25.421316964285708  28.95786830357143 26.388113839285708  27.40931919642857 27.082868303571427  C 25.86077008928572 27.777622767857142  24.22433035714286 28.125  22.5 28.125  C 20.775669642857142 28.125  19.13922991071429 27.777622767857142  17.590680803571427 27.082868303571427  C 16.042131696428573 26.388113839285708  14.70703125 25.421316964285708  13.585379464285715 24.182477678571427  C 11.593191964285714 24.45033482142857  10.048828125 25.44224330357143  8.952287946428571 27.158203125  C 7.855747767857144 28.87416294642857  7.123325892857143 31.029575892857142  6.755022321428572 33.624441964285715  C 8.529575892857142 36.13560267857142  10.797991071428571 38.12360491071429  13.560267857142856 39.588448660714285  C 16.322544642857142 41.053292410714285  19.30245535714286 41.785714285714285  22.5 41.785714285714285  C 25.697544642857146 41.785714285714285  28.677455357142858 41.053292410714285  31.439732142857142 39.588448660714285  Z M 29.31780133928571 22.88922991071429  C 31.201171875 21.005859375  32.142857142857146 18.73325892857143  32.142857142857146 16.07142857142857  C 32.142857142857146 13.409598214285714  31.201171875 11.136997767857144  29.31780133928571 9.253627232142856  C 27.43443080357143 7.370256696428569  25.161830357142858 6.428571428571431  22.5 6.428571428571431  C 19.838169642857142 6.428571428571431  17.565569196428573 7.370256696428569  15.682198660714285 9.253627232142856  C 13.798828125 11.136997767857144  12.857142857142856 13.409598214285714  12.857142857142856 16.07142857142857  C 12.857142857142856 18.73325892857143  13.798828125 21.005859375  15.682198660714285 22.88922991071429  C 17.565569196428573 24.772600446428573  19.838169642857142 25.71428571428571  22.5 25.71428571428571  C 25.161830357142858 25.71428571428571  27.43443080357143 24.772600446428573  29.31780133928571 22.88922991071429  Z M 43.217075892857146 13.761160714285714  C 44.40569196428572 16.54017857142857  45 19.453125  45 22.5  C 45 25.546874999999996  44.40569196428572 28.45563616071428  43.217075892857146 31.226283482142858  C 42.02845982142858 33.99693080357143  40.43387276785715 36.39090401785714  38.433314732142854 38.408203125  C 36.43275669642858 40.425502232142854  34.04296875 42.02845982142857  31.263950892857142 43.217075892857146  C 28.48493303571429 44.405691964285715  25.56361607142857 45  22.5 45  C 19.453125 45  16.540178571428573 44.405691964285715  13.761160714285715 43.217075892857146  C 10.982142857142858 42.02845982142857  8.588169642857142 40.4296875  6.579241071428572 38.42075892857142  C 4.5703125 36.411830357142854  2.971540178571429 34.01785714285714  1.782924107142857 31.23883928571429  C 0.5943080357142856 28.459821428571427  0 25.546874999999996  0 22.5  C 0 19.453125  0.5943080357142856 16.54017857142857  1.782924107142857 13.761160714285714  C 2.971540178571429 10.982142857142852  4.5703125 8.588169642857144  6.579241071428572 6.579241071428569  C 8.588169642857142 4.5703125  10.982142857142858 2.9715401785714275  13.761160714285715 1.7829241071428563  C 16.540178571428573 0.5943080357142855  19.453125 0  22.5 0  C 25.546875 0  28.45982142857143 0.5943080357142855  31.23883928571429 1.7829241071428563  C 34.017857142857146 2.9715401785714275  36.411830357142854 4.5703125  38.42075892857143 6.579241071428569  C 40.42968750000001 8.588169642857144  42.02845982142858 10.982142857142852  43.217075892857146 13.761160714285714  Z " fill-rule="nonzero" fill="#fff8f8" stroke="none" transform="matrix(1 0 0 1 21 22 )" />
    </g>
  </defs>
  <g transform="matrix(1 0 0 1 -11 -12 )">
    <use xlink:href="#widget52" filter="url(#filter51)" />
    <use xlink:href="#widget52" />
  </g>
</svg>