<?xml version="1.0" encoding="utf-8"?>
<svg version="1.1" xmlns:xlink="http://www.w3.org/1999/xlink" width="86px" height="74px" xmlns="http://www.w3.org/2000/svg">
  <defs>
    <filter x="183px" y="9965px" width="86px" height="74px" filterUnits="userSpaceOnUse" id="filter17">
      <feOffset dx="0" dy="0" in="SourceAlpha" result="shadowOffsetInner" />
      <feGaussianBlur stdDeviation="5" in="shadowOffsetInner" result="shadowGaussian" />
      <feComposite in2="shadowGaussian" operator="atop" in="SourceAlpha" result="shadowComposite" />
      <feColorMatrix type="matrix" values="0 0 0 0 1  0 0 0 0 1  0 0 0 0 1  0 0 0 0.4980392156862745 0  " in="shadowComposite" />
    </filter>
    <g id="widget18">
      <path d="M 58.210659898477154 8.521875000000001  C 60.807106598984774 8.240625  63.40355329949239 7.537499999999991  66 6.412500000000001  C 64.1294416243655 9.168749999999994  61.86802030456853 11.517187499999999  59.21573604060914 13.457812500000003  C 59.24365482233503 13.851562499999998  59.25761421319797 14.442187499999994  59.25761421319797 15.229687499999997  C 59.25761421319797 18.885937499999994  58.727157360406096 22.535156249999996  57.66624365482233 26.17734375  C 56.60532994923858 29.819531249999997  54.993020304568525 33.3140625  52.829314720812185 36.6609375  C 50.66560913705584 40.0078125  48.090101522842644 42.96796875  45.10279187817259 45.54140625  C 42.11548223350254 48.11484375  38.513959390862944 50.16796875  34.29822335025381 51.70078125  C 30.082487309644673 53.23359375  25.57360406091371 54  20.771573604060915 54  C 13.20558375634518 54  6.281725888324873 51.9609375  0 47.8828125  C 0.9771573604060918 47.995312500000004  2.0659898477157363 48.0515625  3.266497461928934 48.0515625  C 9.54822335025381 48.0515625  15.145939086294415 46.1109375  20.059644670050762 42.2296875  C 17.128172588832488 42.17343749999999  14.503807106598986 41.266406249999996  12.186548223350254 39.50859375  C 9.869289340101524 37.750781249999996  8.277918781725889 35.50781249999999  7.412436548223351 32.7796875  C 8.333756345177665 32.9203125  9.185279187817262 32.990625  9.967005076142133 32.990625  C 11.16751269035533 32.990625  12.354060913705583 32.8359375  13.526649746192893 32.5265625  C 10.399746192893403 31.8796875  7.81027918781726 30.311718749999997  5.758248730964468 27.82265625  C 3.7062182741116754 25.33359375  2.68020304568528 22.44375  2.680203045685279 19.153125000000003  L 2.680203045685279 18.984375  C 4.5786802030456855 20.053124999999998  6.616751269035532 20.629687499999996  8.794416243654823 20.714062499999997  C 6.951776649746193 19.476562499999996  5.4860406091370555 17.859374999999996  4.397208121827411 15.862499999999997  C 3.308375634517766 13.86562499999999  2.763959390862944 11.699999999999994  2.763959390862944 9.365625000000001  C 2.763959390862944 6.890624999999998  3.378172588832488 4.598437500000003  4.606598984771574 2.4890625000000024  C 7.984771573604061 6.679687499999998  12.095812182741119 10.03359375  16.939720812182742 12.55078125  C 21.783629441624367 15.06796875  26.96954314720812 16.467187499999998  32.49746192893401 16.7484375  C 32.2741116751269 15.679687499999996  32.162436548223354 14.639062499999994  32.162436548223354 13.626562499999999  C 32.162436548223354 9.85781249999999  33.48159898477157 6.64453125  36.11992385786802 3.9867187500000014  C 38.75824873096446 1.3289062500000024  41.94796954314722 0  45.68908629441624 0  C 49.59771573604062 0  52.89213197969543 1.4343750000000024  55.57233502538071 4.303125000000001  C 58.61548223350254 3.7124999999999986  61.47715736040609 2.6156250000000014  64.15736040609137 1.0125000000000024  C 63.12436548223351 4.246874999999992  61.14213197969544 6.75  58.210659898477154 8.521875000000001  Z " fill-rule="nonzero" fill="#fff9f9" stroke="none" transform="matrix(1 0 0 1 193 9975 )" />
    </g>
  </defs>
  <g transform="matrix(1 0 0 1 -183 -9965 )">
    <use xlink:href="#widget18" filter="url(#filter17)" />
    <use xlink:href="#widget18" />
  </g>
</svg>