<?xml version="1.0" encoding="utf-8"?>
<svg version="1.1" xmlns:xlink="http://www.w3.org/1999/xlink" width="49px" height="76px" xmlns="http://www.w3.org/2000/svg">
  <defs>
    <filter x="140px" y="9963px" width="49px" height="76px" filterUnits="userSpaceOnUse" id="filter23">
      <feOffset dx="0" dy="0" in="SourceAlpha" result="shadowOffsetInner" />
      <feGaussianBlur stdDeviation="5" in="shadowOffsetInner" result="shadowGaussian" />
      <feComposite in2="shadowGaussian" operator="atop" in="SourceAlpha" result="shadowComposite" />
      <feColorMatrix type="matrix" values="0 0 0 0 1  0 0 0 0 1  0 0 0 0 1  0 0 0 0.4980392156862745 0  " in="shadowComposite" />
    </filter>
    <g id="widget24">
      <path d="M 21.347222222222225 0  C 24.636574074074076 0  27.1875 0.13461538461538414  29 0.4038461538461524  L 29 9.288461538461537  L 23.730324074074076 9.288461538461537  C 21.805941358024693 9.288461538461537  20.50810185185185 9.692307692307695  19.836805555555557 10.5  C 19.16550925925926 11.307692307692305  18.82986111111111 12.519230769230768  18.82986111111111 14.134615384615383  L 18.82986111111111 20.495192307692307  L 28.66435185185185 20.495192307692307  L 27.355324074074076 30.456730769230766  L 18.82986111111111 30.456730769230766  L 18.82986111111111 56  L 9 56  L 9 30.456730769230766  L 0 30.456730769230766  L 0 20.495192307692307  L 8.559027777777779 20.495192307692307  L 8.559027777777779 13.158653846153847  C 8.559027777777779 8.98557692307692  9.72260802469136 5.749198717948715  12.049768518518517 3.4495192307692317  C 14.37692901234568 1.149839743589748  17.476080246913583 0  21.347222222222225 0  Z " fill-rule="nonzero" fill="#ffffff" stroke="none" transform="matrix(1 0 0 1 150 9973 )" />
    </g>
  </defs>
  <g transform="matrix(1 0 0 1 -140 -9963 )">
    <use xlink:href="#widget24" filter="url(#filter23)" />
    <use xlink:href="#widget24" />
  </g>
</svg>