<svg id="vetor_2" data-name="vetor 2" xmlns="http://www.w3.org/2000/svg" viewBox="0 0 595.28 841.89"><defs><style>.cls-1{fill:#ef85b4;}.cls-1,.cls-2,.cls-3,.cls-4,.cls-5{stroke:#fff;stroke-miterlimit:10;stroke-width:7px;}.cls-2{fill:#f29dc3;}.cls-3{fill:#f4aece;}.cls-4{fill:#f7c3dc;}.cls-5{fill:#fad8e9;}.cls-6{fill:#af4268;}</style></defs><path class="cls-1" d="M370.42,721.52s68.37-66.34,54.46-133-74.59-94.14-74.59-94.14l-74.43,25.28s-28.24,59.22-16.15,108.44S370.42,721.52,370.42,721.52Z"/><path class="cls-2" d="M542.64,604.55s4.58-85.95-46.91-129.26-115.55-26.93-115.55-26.93l-42.66,66s20.19,51,59.61,81.86S542.64,604.55,542.64,604.55Z"/><path class="cls-1" d="M586.72,350.57s-68.85-64.87-131-48.52-83.1,77.34-83.1,77.34L382,454.53s58.18,37.55,125.31,9S586.72,350.57,586.72,350.57Z"/><path class="cls-2" d="M448.9,175.14s-86,3.25-124.46,58.46-16.32,117.52-16.32,117.52l69.61,36.48s52.21-30.6,79.33-72.66S448.9,175.14,448.9,175.14Z"/><path class="cls-1" d="M219,147.79s-63.94,69.72-46.75,131.68,78.45,82,78.45,82l72.06-31.32s15.87-57.26,1.39-102.8S219,147.79,219,147.79Z"/><path class="cls-2" d="M36.28,296.47S48,381.74,106.74,414.56,225.3,419.2,225.3,419.2l29.43-72.88s-29.45-46.3-74-69.14S36.28,296.47,36.28,296.47Z"/><path class="cls-1" d="M9.49,504.1s66.35,68.37,133,54.46S236.68,484,236.68,484L211.4,409.54S152.18,381.3,103,393.39,9.49,504.1,9.49,504.1Z"/><path class="cls-2" d="M259.72,628.07c-12.09-49.23,16.15-108.44,16.15-108.44l3.41-1.17a118.07,118.07,0,0,0-6.53-19.05l-73-29.14s-46.19,29.63-68.85,74.26,19.87,144.39,19.87,144.39,72.91-10.36,109.63-58.52C260.18,629.62,259.91,628.85,259.72,628.07Z"/><path class="cls-3" d="M323.57,524.18c7.54,13.44,38.2,41.62,61.59,28s13.71-45.32-4.31-64.32-54.37-28.34-54.37-28.34l-20.87,17.18S316,510.73,323.57,524.18Z"/><path class="cls-3" d="M372,368.27c9.11-12.44,34-43.85,11.85-59.47s-44.11-3.17-53.93,21.11-8.94,58.4-8.94,58.4l17.4,6.8S362.85,380.71,372,368.27Z"/><path class="cls-3" d="M296.84,326.45c-5.37-18-17.64-43.78-52.42-31.38-33.31,16.85-16.89,58.89,1.76,77.28s31.68,29.12,31.68,29.12l24.92-13.39S302.21,344.48,296.84,326.45Z"/><path class="cls-3" d="M400.47,458.62c18.56,3.07,44.22,1.78,48.31-34.92-.57-37.33-42.69-39.44-67.38-30.73s-40,15.73-40,15.73L342.47,437S381.91,455.55,400.47,458.62Z"/><path class="cls-3" d="M207,378.9c-18.52-3.33-47-4-51.64,32.66,0,37.33,45,41.61,69.79,33.25s40.27-15.17,40.27-15.17l-.73-28.28S225.51,382.22,207,378.9Z"/><path class="cls-4" d="M396.7,373.8c6.9,14.35-5.66,28-14.57,33.1s-40.63,9.36-40.63,9.36l-5.05-9.58s12-30.5,24.8-37.45S389.8,359.46,396.7,373.8Z"/><path class="cls-4" d="M218.49,357.23c7.17-9.74,28.18-4.81,36.11,1.68s24.83,32.26,24.83,32.26L269,407.37s-31-4.64-42-15.42S211.31,367,218.49,357.23Z"/><path class="cls-4" d="M403.58,477.5c-8,13.79-26.34,11.12-35.54,6.62s-30.63-28.29-30.63-28.29l5.07-9.57s32-7.25,44.9-.62S411.55,463.72,403.58,477.5Z"/><path class="cls-4" d="M318.72,320.67c15,5.21,15.89,23.76,13.21,33.66s-22,35.42-22,35.42l-10.35-3.17s-13.16-30-9.09-44S303.68,315.46,318.72,320.67Z"/><path class="cls-3" d="M231.61,489c-7.06,13.71-24.49,59.18-.2,71.17s49.2-18.92,55.14-44.42l11.3-48.56L255.16,454S238.68,475.29,231.61,489Z"/><path class="cls-4" d="M301.71,544.59c-15.87-1.2-21.44-18.92-21.37-29.17s12.21-39.86,12.21-39.86l10.82.42s20.39,25.66,20,40.19S317.58,545.79,301.71,544.59Z"/><path class="cls-4" d="M196.31,477.77c-5.77-14.84,7.82-27.5,17.09-31.86s41.24-6.18,41.24-6.18l4.28,9.94s-14.36,29.47-27.62,35.41S202.07,492.61,196.31,477.77Z"/><path class="cls-5" d="M272.73,366.7c18.17-12.52,29.07-1.69,43.84-.85s15-2.86,25.13-1.72,31.57,17.52,28.58,36.39-11.67,19.54-8.85,28.71,8.55,15.28,2.38,34.14c-12.66,31.22-35.86,12.87-44.24,18.56s5.27,25.34-26.88,21.54S271.21,479.55,265.56,473s-24.17,8.63-32.5-21.49,11.5-34.51,20.13-45.74S254.56,379.22,272.73,366.7Z"/><path class="cls-6" d="M293.25,424.8c5.32-4.57,5.08-11.52,11.46-11.64s4.1,10.43,7.3,11.27,11.54-4.38,15.27,4-5.46.43-6.69,8.6,4.51,14.68-1.37,17.3-10-3.06-15-3.66S295,458,290.39,456.52s.5-10.31-.28-14.59-8.21-.83-11.22-8.81S287.92,429.37,293.25,424.8Z"/></svg>