<?xml version="1.0" encoding="utf-8"?>
<svg version="1.1" xmlns:xlink="http://www.w3.org/1999/xlink" width="76px" height="76px" xmlns="http://www.w3.org/2000/svg">
  <defs>
    <filter x="70px" y="9963px" width="76px" height="76px" filterUnits="userSpaceOnUse" id="filter21">
      <feOffset dx="0" dy="0" in="SourceAlpha" result="shadowOffsetInner" />
      <feGaussianBlur stdDeviation="5" in="shadowOffsetInner" result="shadowGaussian" />
      <feComposite in2="shadowGaussian" operator="atop" in="SourceAlpha" result="shadowComposite" />
      <feColorMatrix type="matrix" values="0 0 0 0 1  0 0 0 0 0.996078431372549  0 0 0 0 0.996078431372549  0 0 0 0.4980392156862745 0  " in="shadowComposite" />
    </filter>
    <g id="widget22">
      <path d="M 34.015625 32.57622739018088  C 34.96354166666667 31.406546080964688  35.59548611111112 30.821705426356587  35.91145833333333 30.821705426356587  C 36.22743055555556 30.821705426356587  37.41232638888889 31.352282515073213  39.46614583333333 32.413436692506465  C 41.51996527777778 33.4745908699397  42.60763888888889 34.11369509043928  42.72916666666667 34.33074935400517  C 42.77777777777778 34.45133505598621  42.80208333333333 34.63221360895779  42.80208333333333 34.8733850129199  C 42.80208333333333 35.66925064599483  42.59548611111112 36.58570198105082  42.18229166666667 37.622739018087856  C 41.79340277777778 38.56330749354005  40.93055555555556 39.35314384151594  39.59375 39.9922480620155  C 38.25694444444445 40.63135228251507  37.017361111111114 40.95090439276486  35.875 40.95090439276486  C 34.489583333333336 40.95090439276486  32.18055555555556 40.20327304048234  28.947916666666668 38.708010335917315  C 26.565972222222225 37.622739018087856  24.5 36.19982773471145  22.75 34.43927648578811  C 21 32.67872523686477  19.20138888888889 30.447889750215325  17.354166666666664 27.746770025839794  C 15.604166666666666 25.166236003445302  14.741319444444446 22.82687338501292  14.765625 20.728682170542633  L 14.765625 20.43927648578811  C 14.838541666666668 18.244616709732984  15.737847222222225 16.339362618432382  17.463541666666664 14.723514211886302  C 18.046875 14.192937123169678  18.678819444444446 13.927648578811368  19.359375 13.927648578811368  C 19.505208333333336 13.927648578811368  19.723958333333336 13.945736434108527  20.015625 13.98191214470284  C 20.307291666666664 14.01808785529716  20.538194444444446 14.036175710594314  20.708333333333336 14.036175710594314  C 21.17013888888889 14.036175710594314  21.4921875 14.114556416881996  21.674479166666664 14.271317829457365  C 21.856770833333336 14.428079242032728  22.04513888888889 14.759689922480622  22.239583333333336 15.266149870801032  C 22.43402777777778 15.748492678725233  22.835069444444446 16.809646856158476  23.442708333333336 18.449612403100776  C 24.050347222222225 20.089577950043065  24.354166666666664 20.993970714900946  24.354166666666664 21.162790697674417  C 24.354166666666664 21.66925064599483  23.934895833333336 22.362618432385872  23.096354166666664 23.242894056847547  C 22.2578125 24.12316968130921  21.838541666666664 24.6838931955211  21.838541666666664 24.925064599483207  C 21.838541666666664 25.093884582256674  21.89930555555556 25.27476313522825  22.020833333333336 25.46770025839793  C 22.847222222222225 27.228251507321275  24.08680555555556 28.880275624461667  25.739583333333336 30.423772609819117  C 27.100694444444446 31.70198105081826  28.935763888888893 32.91989664082688  31.244791666666668 34.07751937984496  C 31.536458333333332 34.24633936261843  31.803819444444443 34.33074935400517  32.046875 34.33074935400517  C 32.411458333333336 34.33074935400517  33.067708333333336 33.74590869939706  34.015625 32.57622739018088  Z M 15.932291666666666 46.23255813953489  C 19.772569444444446 48.74074074074074  23.965277777777775 49.99483204134367  28.510416666666668 49.99483204134367  C 31.597222222222225 49.99483204134367  34.55642361111112 49.39190353143841  37.38802083333333 48.18604651162791  C 40.21961805555556 46.9801894918174  42.65625 45.36434108527132  44.69791666666667 43.338501291989665  C 46.73958333333333 41.31266149870801  48.36805555555556 38.89491817398794  49.58333333333333 36.08527131782946  C 50.79861111111112 33.27562446167097  51.40625 30.339362618432382  51.40625 27.276485788113696  C 51.40625 24.213608957795003  50.79861111111112 21.277347114556413  49.58333333333333 18.46770025839793  C 48.36805555555556 15.658053402239446  46.73958333333333 13.240310077519378  44.69791666666667 11.214470284237725  C 42.65625 9.188630490956072  40.21961805555556 7.572782084409988  37.38802083333333 6.366925064599484  C 34.55642361111112 5.161068044788968  31.597222222222225 4.558139534883723  28.510416666666668 4.558139534883723  C 25.423611111111114 4.558139534883723  22.464409722222225 5.161068044788968  19.6328125 6.366925064599484  C 16.80121527777778 7.572782084409988  14.364583333333334 9.188630490956072  12.322916666666668 11.214470284237725  C 10.28125 13.240310077519378  8.652777777777779 15.658053402239446  7.4375 18.46770025839793  C 6.222222222222222 21.277347114556413  5.614583333333334 24.213608957795003  5.614583333333334 27.276485788113696  C 5.614583333333334 32.17226528854436  7.072916666666667 36.60981912144703  9.989583333333332 40.5891472868217  L 7.109375 49.01808785529716  L 15.932291666666666 46.23255813953489  Z M 17.846354166666664 2.1705426356589124  C 21.236979166666664 0.723514211886302  24.791666666666664 0  28.510416666666668 0  C 32.22916666666667 0  35.78385416666667 0.723514211886302  39.17447916666667 2.1705426356589124  C 42.56510416666667 3.6175710594315227  45.48784722222223 5.559000861326439  47.94270833333333 7.994832041343667  C 50.39756944444445 10.430663221360895  52.35416666666667 13.330749354005171  53.8125 16.695090439276488  C 55.27083333333333 20.0594315245478  56 23.586563307493535  56 27.276485788113696  C 56 30.966408268733847  55.27083333333333 34.49354005167959  53.8125 37.8578811369509  C 52.35416666666667 41.22222222222223  50.39756944444445 44.12230835486649  47.94270833333333 46.55813953488372  C 45.48784722222223 48.99397071490095  42.56510416666667 50.935400516795866  39.17447916666667 52.382428940568474  C 35.78385416666667 53.82945736434109  32.22916666666667 54.55297157622739  28.510416666666668 54.55297157622739  C 23.770833333333336 54.55297157622739  19.335069444444446 53.41946597760551  15.203125 51.15245478036176  L 0 56  L 4.958333333333334 41.348837209302324  C 2.333333333333333 37.055986218776916  1.0208333333333335 32.36520241171404  1.0208333333333335 27.276485788113696  C 1.0208333333333335 23.586563307493535  1.75 20.0594315245478  3.208333333333333 16.695090439276488  C 4.666666666666666 13.330749354005171  6.62326388888889 10.430663221360895  9.078125 7.994832041343667  C 11.532986111111112 5.559000861326439  14.455729166666666 3.6175710594315227  17.846354166666664 2.1705426356589124  Z " fill-rule="nonzero" fill="#ffffff" stroke="none" transform="matrix(1 0 0 1 80 9973 )" />
    </g>
  </defs>
  <g transform="matrix(1 0 0 1 -70 -9963 )">
    <use xlink:href="#widget22" filter="url(#filter21)" />
    <use xlink:href="#widget22" />
  </g>
</svg>